<svg width="1440" height="900" viewBox="0 0 1440 900" fill="none" xmlns="http://www.w3.org/2000/svg">
<mask id="mask0_68_818" style="mask-type:alpha" maskUnits="userSpaceOnUse" x="0" y="0" width="1440" height="900">
<rect width="1440" height="900" fill="#C4C4C4"/>
</mask>
<g mask="url(#mask0_68_818)">
<rect x="-16.9771" y="-4.8623" width="1499.55" height="849.717" fill="#66F3B0"/>
<g filter="url(#filter0_f_68_818)">
<path d="M-9.57764 395.64L755.705 -17.7846L1103.56 -17.7847L1529.27 92.4621L36.8029 708.661L-9.57764 395.64Z" fill="url(#paint0_linear_68_818)"/>
</g>
<g filter="url(#filter1_f_68_818)">
<ellipse cx="317.783" cy="108.005" rx="317.783" ry="108.005" transform="matrix(0.90598 -0.423319 0.314056 0.949404 594.745 264.496)" fill="#3DADFF"/>
</g>
<g filter="url(#filter2_f_68_818)">
<ellipse cx="317.783" cy="108.005" rx="317.783" ry="108.005" transform="matrix(0.90598 -0.423319 0.314056 0.949404 359.498 345.665)" fill="#3DADFF"/>
</g>
<g opacity="0.4" filter="url(#filter3_f_68_818)">
<path d="M688.142 25.2646C521.227 50.8616 313.033 99.9225 108.428 25.2646C97.6596 19.5764 89.4034 25.6912 142.529 95.6563C208.936 183.113 426.104 146.85 688.142 25.2646Z" fill="#AFFF89"/>
</g>
<g opacity="0.3" filter="url(#filter4_f_68_818)">
<path d="M627.354 37.3664C494.97 57.668 329.846 96.5795 167.568 37.3664C159.027 32.8549 152.479 37.7047 194.614 93.1958C247.283 162.56 419.525 133.799 627.354 37.3664Z" fill="#AFFF89"/>
</g>
<path d="M697.46 326.614C1017.16 161.244 1149.67 153.369 1456.12 216.367L1557.16 428.985L79.5995 911.314C52.5441 906.064 130.949 773.505 344.633 572.699C384.912 534.848 377.764 491.983 697.46 326.614Z" fill="url(#paint1_linear_68_818)"/>
<g filter="url(#filter5_f_68_818)">
<path d="M911.14 277.396C1249.65 178.123 1149.67 153.369 1456.11 216.367L1557.16 428.985L91.1938 907.376C64.1384 902.126 33.2179 790.83 125.98 631.76C241.932 432.922 656.046 352.206 911.14 277.396Z" fill="#81F7FF"/>
</g>
<g filter="url(#filter6_f_68_818)">
<path d="M815.066 344.332C1189.38 245.059 1170.5 153.37 1509.36 216.368L1557.16 428.986L-63.8647 907.377C-93.7819 902.127 -127.973 790.83 -25.3997 631.76C102.817 432.923 532.99 419.141 815.066 344.332Z" fill="#81F7FF"/>
</g>
<g filter="url(#filter7_f_68_818)">
<ellipse cx="317.783" cy="108.005" rx="317.783" ry="108.005" transform="matrix(0.90598 -0.423319 0.314056 0.949404 -18.5752 503.58)" fill="#70A9FF"/>
</g>
<g opacity="0.8" filter="url(#filter8_f_68_818)">
<ellipse cx="380.657" cy="157.856" rx="380.657" ry="157.856" transform="matrix(0.937239 -0.348688 0.2547 0.96702 463.523 527.712)" fill="#26F177"/>
</g>
<g filter="url(#filter9_f_68_818)">
<ellipse cx="317.783" cy="108.005" rx="317.783" ry="108.005" transform="matrix(0.90598 -0.423319 0.314056 0.949404 981.35 431.554)" fill="#BAFFDE"/>
</g>
<g filter="url(#filter10_f_68_818)">
<ellipse cx="285.557" cy="166.372" rx="285.557" ry="166.372" transform="matrix(0.90598 -0.423319 0.314056 0.949404 -308 508.969)" fill="url(#paint2_linear_68_818)"/>
</g>
<g filter="url(#filter11_f_68_818)">
<path d="M-20.4941 762.813V1128H1569.84V385.141L-20.4941 762.813Z" fill="white"/>
</g>
<g opacity="0.3" filter="url(#filter12_f_68_818)">
<ellipse cx="109.989" cy="377.235" rx="109.989" ry="377.235" transform="matrix(0.52776 0.849393 -0.80789 0.589334 1490.76 266.414)" fill="#78FF86"/>
</g>
<g opacity="0.3" filter="url(#filter13_f_68_818)">
<ellipse cx="109.989" cy="377.235" rx="109.989" ry="377.235" transform="matrix(0.52776 0.849393 -0.80789 0.589334 1343.99 222.845)" fill="#53F5FF"/>
</g>
<g filter="url(#filter14_f_68_818)">
<path d="M1160.8 192.054L1621.4 -56L1507.1 242.651L1160.8 192.054Z" fill="#51ED99"/>
</g>
<g filter="url(#filter15_d_68_818)">
<path d="M706.692 671.34L682.777 719.908L672.858 720.59L634.133 723.182L627.067 723.592L595 676.115L627.475 627.547L674.489 624L706.692 671.34Z" fill="url(#paint3_linear_68_818)"/>
<path d="M682.776 719.908L650.03 671.34L671.906 625.501L674.488 624L706.691 671.34L682.776 719.908Z" fill="url(#paint4_linear_68_818)"/>
<path d="M595 676.115L618.643 628.093L674.489 624L650.846 672.432L595 676.115Z" fill="url(#paint5_linear_68_818)"/>
</g>
</g>
<defs>
<filter id="filter0_f_68_818" x="-16.5776" y="-24.7847" width="1552.85" height="740.446" filterUnits="userSpaceOnUse" color-interpolation-filters="sRGB">
<feFlood flood-opacity="0" result="BackgroundImageFix"/>
<feBlend mode="normal" in="SourceGraphic" in2="BackgroundImageFix" result="shape"/>
<feGaussianBlur stdDeviation="3.5" result="effect1_foregroundBlur_68_818"/>
</filter>
<filter id="filter1_f_68_818" x="462.645" y="-100.645" width="907.849" height="666.315" filterUnits="userSpaceOnUse" color-interpolation-filters="sRGB">
<feFlood flood-opacity="0" result="BackgroundImageFix"/>
<feBlend mode="normal" in="SourceGraphic" in2="BackgroundImageFix" result="shape"/>
<feGaussianBlur stdDeviation="82" result="effect1_foregroundBlur_68_818"/>
</filter>
<filter id="filter2_f_68_818" x="227.398" y="-19.4756" width="907.849" height="666.315" filterUnits="userSpaceOnUse" color-interpolation-filters="sRGB">
<feFlood flood-opacity="0" result="BackgroundImageFix"/>
<feBlend mode="normal" in="SourceGraphic" in2="BackgroundImageFix" result="shape"/>
<feGaussianBlur stdDeviation="82" result="effect1_foregroundBlur_68_818"/>
</filter>
<filter id="filter3_f_68_818" x="32.4668" y="-44.3584" width="723.675" height="256.234" filterUnits="userSpaceOnUse" color-interpolation-filters="sRGB">
<feFlood flood-opacity="0" result="BackgroundImageFix"/>
<feBlend mode="normal" in="SourceGraphic" in2="BackgroundImageFix" result="shape"/>
<feGaussianBlur stdDeviation="34" result="effect1_foregroundBlur_68_818"/>
</filter>
<filter id="filter4_f_68_818" x="125.254" y="0.0791016" width="538.1" height="167.361" filterUnits="userSpaceOnUse" color-interpolation-filters="sRGB">
<feFlood flood-opacity="0" result="BackgroundImageFix"/>
<feBlend mode="normal" in="SourceGraphic" in2="BackgroundImageFix" result="shape"/>
<feGaussianBlur stdDeviation="18" result="effect1_foregroundBlur_68_818"/>
</filter>
<filter id="filter5_f_68_818" x="49.6436" y="167.809" width="1521.51" height="753.567" filterUnits="userSpaceOnUse" color-interpolation-filters="sRGB">
<feFlood flood-opacity="0" result="BackgroundImageFix"/>
<feBlend mode="normal" in="SourceGraphic" in2="BackgroundImageFix" result="shape"/>
<feGaussianBlur stdDeviation="7" result="effect1_foregroundBlur_68_818"/>
</filter>
<filter id="filter6_f_68_818" x="-140.329" y="149.657" width="1743.49" height="803.72" filterUnits="userSpaceOnUse" color-interpolation-filters="sRGB">
<feFlood flood-opacity="0" result="BackgroundImageFix"/>
<feBlend mode="normal" in="SourceGraphic" in2="BackgroundImageFix" result="shape"/>
<feGaussianBlur stdDeviation="23" result="effect1_foregroundBlur_68_818"/>
</filter>
<filter id="filter7_f_68_818" x="-150.675" y="138.439" width="907.849" height="666.315" filterUnits="userSpaceOnUse" color-interpolation-filters="sRGB">
<feFlood flood-opacity="0" result="BackgroundImageFix"/>
<feBlend mode="normal" in="SourceGraphic" in2="BackgroundImageFix" result="shape"/>
<feGaussianBlur stdDeviation="82" result="effect1_foregroundBlur_68_818"/>
</filter>
<filter id="filter8_f_68_818" x="337.438" y="181.343" width="1046.12" height="732.576" filterUnits="userSpaceOnUse" color-interpolation-filters="sRGB">
<feFlood flood-opacity="0" result="BackgroundImageFix"/>
<feBlend mode="normal" in="SourceGraphic" in2="BackgroundImageFix" result="shape"/>
<feGaussianBlur stdDeviation="82" result="effect1_foregroundBlur_68_818"/>
</filter>
<filter id="filter9_f_68_818" x="849.25" y="66.4131" width="907.849" height="666.315" filterUnits="userSpaceOnUse" color-interpolation-filters="sRGB">
<feFlood flood-opacity="0" result="BackgroundImageFix"/>
<feBlend mode="normal" in="SourceGraphic" in2="BackgroundImageFix" result="shape"/>
<feGaussianBlur stdDeviation="82" result="effect1_foregroundBlur_68_818"/>
</filter>
<filter id="filter10_f_68_818" x="-425.025" y="183.129" width="855.968" height="725.824" filterUnits="userSpaceOnUse" color-interpolation-filters="sRGB">
<feFlood flood-opacity="0" result="BackgroundImageFix"/>
<feBlend mode="normal" in="SourceGraphic" in2="BackgroundImageFix" result="shape"/>
<feGaussianBlur stdDeviation="82" result="effect1_foregroundBlur_68_818"/>
</filter>
<filter id="filter11_f_68_818" x="-152.494" y="253.141" width="1854.33" height="1006.86" filterUnits="userSpaceOnUse" color-interpolation-filters="sRGB">
<feFlood flood-opacity="0" result="BackgroundImageFix"/>
<feBlend mode="normal" in="SourceGraphic" in2="BackgroundImageFix" result="shape"/>
<feGaussianBlur stdDeviation="66" result="effect1_foregroundBlur_68_818"/>
</filter>
<filter id="filter12_f_68_818" x="801.743" y="208.943" width="884.6" height="746.424" filterUnits="userSpaceOnUse" color-interpolation-filters="sRGB">
<feFlood flood-opacity="0" result="BackgroundImageFix"/>
<feBlend mode="normal" in="SourceGraphic" in2="BackgroundImageFix" result="shape"/>
<feGaussianBlur stdDeviation="66" result="effect1_foregroundBlur_68_818"/>
</filter>
<filter id="filter13_f_68_818" x="654.974" y="165.374" width="884.6" height="746.424" filterUnits="userSpaceOnUse" color-interpolation-filters="sRGB">
<feFlood flood-opacity="0" result="BackgroundImageFix"/>
<feBlend mode="normal" in="SourceGraphic" in2="BackgroundImageFix" result="shape"/>
<feGaussianBlur stdDeviation="66" result="effect1_foregroundBlur_68_818"/>
</filter>
<filter id="filter14_f_68_818" x="1092.8" y="-124" width="596.595" height="434.651" filterUnits="userSpaceOnUse" color-interpolation-filters="sRGB">
<feFlood flood-opacity="0" result="BackgroundImageFix"/>
<feBlend mode="normal" in="SourceGraphic" in2="BackgroundImageFix" result="shape"/>
<feGaussianBlur stdDeviation="34" result="effect1_foregroundBlur_68_818"/>
</filter>
<filter id="filter15_d_68_818" x="590.346" y="624" width="163.814" height="179.637" filterUnits="userSpaceOnUse" color-interpolation-filters="sRGB">
<feFlood flood-opacity="0" result="BackgroundImageFix"/>
<feColorMatrix in="SourceAlpha" type="matrix" values="0 0 0 0 0 0 0 0 0 0 0 0 0 0 0 0 0 0 127 0" result="hardAlpha"/>
<feOffset dx="21.4076" dy="53.9843"/>
<feGaussianBlur stdDeviation="13.0307"/>
<feColorMatrix type="matrix" values="0 0 0 0 0.0326389 0 0 0 0 0.979167 0 0 0 0 0.922375 0 0 0 0.15 0"/>
<feBlend mode="normal" in2="BackgroundImageFix" result="effect1_dropShadow_68_818"/>
<feBlend mode="normal" in="SourceGraphic" in2="effect1_dropShadow_68_818" result="shape"/>
</filter>
<linearGradient id="paint0_linear_68_818" x1="759.847" y1="-17.7847" x2="93.6407" y2="514.452" gradientUnits="userSpaceOnUse">
<stop stop-color="#37DAFE"/>
<stop offset="1" stop-color="#00C2FF" stop-opacity="0"/>
</linearGradient>
<linearGradient id="paint1_linear_68_818" x1="1156.3" y1="267.553" x2="432.984" y2="511.572" gradientUnits="userSpaceOnUse">
<stop stop-color="#81FFB3"/>
<stop offset="0.65537" stop-color="#FFEB81"/>
<stop offset="1" stop-color="#81FFD1"/>
</linearGradient>
<linearGradient id="paint2_linear_68_818" x1="373.73" y1="98.2111" x2="265.1" y2="322.851" gradientUnits="userSpaceOnUse">
<stop stop-color="#51DBEE"/>
<stop offset="1" stop-color="#51EEB5"/>
</linearGradient>
<linearGradient id="paint3_linear_68_818" x1="660.153" y1="723.592" x2="633.161" y2="678.915" gradientUnits="userSpaceOnUse">
<stop stop-color="#69DBFF"/>
<stop offset="1" stop-color="#7DEDE0"/>
</linearGradient>
<linearGradient id="paint4_linear_68_818" x1="655.964" y1="674.727" x2="697.848" y2="687.757" gradientUnits="userSpaceOnUse">
<stop stop-color="#7EFCCE"/>
<stop offset="1" stop-color="#AFE7FF"/>
</linearGradient>
<linearGradient id="paint5_linear_68_818" x1="620.596" y1="630.05" x2="650.38" y2="672.4" gradientUnits="userSpaceOnUse">
<stop stop-color="#C6FFCF"/>
<stop offset="1" stop-color="#BEFBFF"/>
</linearGradient>
</defs>
</svg>
